<svg width="90" height="90" viewBox="0 0 90 90" xmlns="http://www.w3.org/2000/svg">
  <rect width="90" height="90" rx="20" fill="#0f0a1e"/>
  <rect x="10" y="10" width="70" height="70" rx="16" fill="#1e0a3c" stroke="#6d28d9" stroke-width="1.5"/>
  <rect x="20" y="22" width="50" height="10" rx="4" fill="#4c1d95"/>
  <rect x="20" y="22" width="50" height="10" rx="4" fill="none" stroke="#7c3aed" stroke-width="1"/>
  <rect x="20" y="36" width="50" height="10" rx="4" fill="#3b0764"/>
  <rect x="20" y="36" width="50" height="10" rx="4" fill="none" stroke="#6d28d9" stroke-width="1"/>
  <rect x="20" y="50" width="32" height="10" rx="4" fill="#2e1065"/>
  <rect x="20" y="50" width="32" height="10" rx="4" fill="none" stroke="#5b21b6" stroke-width="1"/>
  <circle cx="29" cy="27" r="3" fill="#e879f9"/>
  <circle cx="29" cy="41" r="3" fill="#c026d3"/>
  <circle cx="29" cy="55" r="3" fill="#9333ea"/>
  <rect x="58" y="52" width="16" height="16" rx="4" fill="#7c3aed"/>
  <path d="M62 60 L65 63 L71 57" stroke="white" stroke-width="2" stroke-linecap="round" stroke-linejoin="round" fill="none"/>
</svg>